<svg width="32" height="32" viewBox="0 0 32 32" fill="none" xmlns="http://www.w3.org/2000/svg">
  <defs>
    <linearGradient id="dgx" x1="0" x2="1" y1="0" y2="1">
      <stop offset="0%" stopColor="#4dffa0" />
      <stop offset="100%" stopColor="#39ff88" />
    </linearGradient>
  </defs>
  <polygon points="16,2 29,9 29,23 16,30 3,23 3,9" stroke="url(#dgx)" strokeWidth="2.5" fill="rgba(57,255,136,0.15)" />
  <circle cx="16" cy="16" r="4" fill="#39ff88" />
  <circle cx="16" cy="6" r="2.5" fill="#4dffa0" />
  <circle cx="26" cy="12" r="2.5" fill="#4dffa0" />
  <circle cx="26" cy="22" r="2.5" fill="#4dffa0" />
  <circle cx="16" cy="26" r="2.5" fill="#4dffa0" />
  <circle cx="6" cy="22" r="2.5" fill="#4dffa0" />
  <circle cx="6" cy="12" r="2.5" fill="#4dffa0" />
  <g stroke="rgba(77,255,160,0.75)" strokeWidth="1.2">
    <line x1="16" y1="16" x2="16" y2="6" />
    <line x1="16" y1="16" x2="26" y2="12" />
    <line x1="16" y1="16" x2="26" y2="22" />
    <line x1="16" y1="16" x2="16" y2="26" />
    <line x1="16" y1="16" x2="6" y2="22" />
    <line x1="16" y1="16" x2="6" y2="12" />
  </g>
</svg>
